<svg xmlns="http://www.w3.org/2000/svg" width="1301.756" height="605.89" viewBox="0 0 1301.756 605.89">
  <g id="Group_719" data-name="Group 719" transform="translate(-272.69 -5090.5)">
    <g id="Group_700" data-name="Group 700" transform="translate(377.69 5354.845)">
      <path id="Path_350" data-name="Path 350" d="M238.8,124.359l.037,9.79-12.623,1.192-.468-12.675-19.84-2.574,1.684,32.926,35.783-1.508.907-26.44Zm-19.4,10.55-6.524-.431-.037-9.749,6.981-.027Z" transform="translate(-205.367 -109.32)" fill="#ff481d"/>
      <path id="Path_351" data-name="Path 351" d="M205.2,106.082l38.65,5.42.438-12.773-39.456.149Z" transform="translate(-204.833 -98.729)" fill="#ff481d"/>
    </g>
    <g id="Group_721" data-name="Group 721" transform="translate(272.69 5505.845)">
      <path id="Path_350-2" data-name="Path 350" d="M238.8,124.359l.037,9.79-12.623,1.192-.468-12.675-19.84-2.574,1.684,32.926,35.783-1.508.907-26.44Zm-19.4,10.55-6.524-.431-.037-9.749,6.981-.027Z" transform="translate(-205.367 -109.32)" fill="#ff481d"/>
      <path id="Path_351-2" data-name="Path 351" d="M205.2,106.082l38.65,5.42.438-12.773-39.456.149Z" transform="translate(-204.833 -98.729)" fill="#ff481d"/>
    </g>
    <g id="Group_701" data-name="Group 701" transform="translate(417.146 5265.902)">
      <path id="Path_350-3" data-name="Path 350" d="M238.8,124.359l.037,9.79-12.623,1.192-.468-12.675-19.84-2.574,1.684,32.926,35.783-1.508.907-26.44Zm-19.4,10.55-6.524-.431-.037-9.749,6.981-.027Z" transform="translate(-205.367 -109.32)" fill="#6642bb"/>
      <path id="Path_351-3" data-name="Path 351" d="M205.2,106.082l38.65,5.42.438-12.773-39.456.149Z" transform="translate(-204.833 -98.729)" fill="#6642bb"/>
    </g>
    <g id="Group_723" data-name="Group 723" transform="translate(1416.409 5462.148)">
      <path id="Path_350-4" data-name="Path 350" d="M238.8,124.359l.037,9.79-12.623,1.192-.468-12.675-19.84-2.574,1.684,32.926,35.783-1.508.907-26.44Zm-19.4,10.55-6.524-.431-.037-9.749,6.981-.027Z" transform="translate(-205.367 -109.32)" fill="#6642bb"/>
      <path id="Path_351-4" data-name="Path 351" d="M205.2,106.082l38.65,5.42.438-12.773-39.456.149Z" transform="translate(-204.833 -98.729)" fill="#6642bb"/>
    </g>
    <g id="Group_722" data-name="Group 722" transform="translate(368.26 5608.997)">
      <path id="Path_350-5" data-name="Path 350" d="M238.8,124.359l.037,9.79-12.623,1.192-.468-12.675-19.84-2.574,1.684,32.926,35.783-1.508.907-26.44Zm-19.4,10.55-6.524-.431-.037-9.749,6.981-.027Z" transform="translate(-205.367 -109.32)" fill="#6642bb"/>
      <path id="Path_351-5" data-name="Path 351" d="M205.2,106.082l38.65,5.42.438-12.773-39.456.149Z" transform="translate(-204.833 -98.729)" fill="#6642bb"/>
    </g>
    <g id="Group_702" data-name="Group 702" transform="translate(482.822 5090.5)">
      <path id="Path_350-6" data-name="Path 350" d="M238.8,124.359l.037,9.79-12.623,1.192-.468-12.675-19.84-2.574,1.684,32.926,35.783-1.508.907-26.44Zm-19.4,10.55-6.524-.431-.037-9.749,6.981-.027Z" transform="translate(-205.367 -109.32)" fill="#f1a8ba"/>
      <path id="Path_351-6" data-name="Path 351" d="M205.2,106.082l38.65,5.42.438-12.773-39.456.149Z" transform="translate(-204.833 -98.729)" fill="#f1a8ba"/>
    </g>
    <g id="Group_703" data-name="Group 703" transform="translate(1126.195 5354.845)">
      <path id="Path_350-7" data-name="Path 350" d="M238.8,124.359l.037,9.79-12.623,1.192-.468-12.675-19.84-2.574,1.684,32.926,35.783-1.508.907-26.44Zm-19.4,10.55-6.524-.431-.037-9.749,6.981-.027Z" transform="translate(-205.367 -109.32)" fill="#372152"/>
      <path id="Path_351-7" data-name="Path 351" d="M205.2,106.082l38.65,5.42.438-12.773-39.456.149Z" transform="translate(-204.833 -98.729)" fill="#372152"/>
    </g>
    <g id="Group_704" data-name="Group 704" transform="translate(494.366 5302.161)">
      <path id="Path_350-8" data-name="Path 350" d="M238.8,124.359l.037,9.79-12.623,1.192-.468-12.675-19.84-2.574,1.684,32.926,35.783-1.508.907-26.44Zm-19.4,10.55-6.524-.431-.037-9.749,6.981-.027Z" transform="translate(-205.367 -109.32)" fill="#372152"/>
      <path id="Path_351-8" data-name="Path 351" d="M205.2,106.082l38.65,5.42.438-12.773-39.456.149Z" transform="translate(-204.833 -98.729)" fill="#372152"/>
    </g>
    <g id="Group_705" data-name="Group 705" transform="translate(586.055 5231.722)">
      <path id="Path_350-9" data-name="Path 350" d="M238.8,124.359l.037,9.79-12.623,1.192-.468-12.675-19.84-2.574,1.684,32.926,35.783-1.508.907-26.44Zm-19.4,10.55-6.524-.431-.037-9.749,6.981-.027Z" transform="translate(-205.367 -109.32)" fill="#80d7b6"/>
      <path id="Path_351-9" data-name="Path 351" d="M205.2,106.082l38.65,5.42.438-12.773-39.456.149Z" transform="translate(-204.833 -98.729)" fill="#80d7b6"/>
    </g>
    <g id="Group_706" data-name="Group 706" transform="translate(1383.781 5258.464)">
      <path id="Path_350-10" data-name="Path 350" d="M238.8,124.359l.037,9.79-12.623,1.192-.468-12.675-19.84-2.574,1.684,32.926,35.783-1.508.907-26.44Zm-19.4,10.55-6.524-.431-.037-9.749,6.981-.027Z" transform="translate(-205.367 -109.32)" fill="#80d7b6"/>
      <path id="Path_351-10" data-name="Path 351" d="M205.2,106.082l38.65,5.42.438-12.773-39.456.149Z" transform="translate(-204.833 -98.729)" fill="#80d7b6"/>
    </g>
    <g id="Group_707" data-name="Group 707" transform="translate(1286.805 5376.693)">
      <path id="Path_350-11" data-name="Path 350" d="M238.8,124.359l.037,9.79-12.623,1.192-.468-12.675-19.84-2.574,1.684,32.926,35.783-1.508.907-26.44Zm-19.4,10.55-6.524-.431-.037-9.749,6.981-.027Z" transform="translate(-205.367 -109.32)" fill="#80d7b6"/>
      <path id="Path_351-11" data-name="Path 351" d="M205.2,106.082l38.65,5.42.438-12.773-39.456.149Z" transform="translate(-204.833 -98.729)" fill="#80d7b6"/>
    </g>
    <g id="Group_724" data-name="Group 724" transform="translate(348.532 5433.693)">
      <path id="Path_350-12" data-name="Path 350" d="M238.8,124.359l.037,9.79-12.623,1.192-.468-12.675-19.84-2.574,1.684,32.926,35.783-1.508.907-26.44Zm-19.4,10.55-6.524-.431-.037-9.749,6.981-.027Z" transform="translate(-205.367 -109.32)" fill="#80d7b6"/>
      <path id="Path_351-12" data-name="Path 351" d="M205.2,106.082l38.65,5.42.438-12.773-39.456.149Z" transform="translate(-204.833 -98.729)" fill="#80d7b6"/>
    </g>
    <g id="Group_720" data-name="Group 720" transform="translate(1396.681 5652.693)">
      <path id="Path_350-13" data-name="Path 350" d="M238.8,124.359l.037,9.79-12.623,1.192-.468-12.675-19.84-2.574,1.684,32.926,35.783-1.508.907-26.44Zm-19.4,10.55-6.524-.431-.037-9.749,6.981-.027Z" transform="translate(-205.367 -109.32)" fill="#80d7b6"/>
      <path id="Path_351-13" data-name="Path 351" d="M205.2,106.082l38.65,5.42.438-12.773-39.456.149Z" transform="translate(-204.833 -98.729)" fill="#80d7b6"/>
    </g>
    <g id="Group_708" data-name="Group 708" transform="translate(514.094 5178.509)">
      <path id="Path_350-14" data-name="Path 350" d="M238.8,124.359l.037,9.79-12.623,1.192-.468-12.675-19.84-2.574,1.684,32.926,35.783-1.508.907-26.44Zm-19.4,10.55-6.524-.431-.037-9.749,6.981-.027Z" transform="translate(-205.367 -109.32)" fill="#ff481d"/>
      <path id="Path_351-14" data-name="Path 351" d="M205.2,106.082l38.65,5.42.438-12.773-39.456.149Z" transform="translate(-204.833 -98.729)" fill="#ff481d"/>
    </g>
    <g id="Group_709" data-name="Group 709" transform="translate(1094.873 5118.761)">
      <path id="Path_350-15" data-name="Path 350" d="M238.8,124.359l.037,9.79-12.623,1.192-.468-12.675-19.84-2.574,1.684,32.926,35.783-1.508.907-26.44Zm-19.4,10.55-6.524-.431-.037-9.749,6.981-.027Z" transform="translate(-205.367 -109.32)" fill="#e52663"/>
      <path id="Path_351-15" data-name="Path 351" d="M205.2,106.082l38.65,5.42.438-12.773-39.456.149Z" transform="translate(-204.833 -98.729)" fill="#e52663"/>
    </g>
    <g id="Group_710" data-name="Group 710" transform="translate(1262.99 5244.054)">
      <path id="Path_350-16" data-name="Path 350" d="M238.8,124.359l.037,9.79-12.623,1.192-.468-12.675-19.84-2.574,1.684,32.926,35.783-1.508.907-26.44Zm-19.4,10.55-6.524-.431-.037-9.749,6.981-.027Z" transform="translate(-205.367 -109.32)" fill="#ff481d"/>
      <path id="Path_351-16" data-name="Path 351" d="M205.2,106.082l38.65,5.42.438-12.773-39.456.149Z" transform="translate(-204.833 -98.729)" fill="#ff481d"/>
    </g>
    <g id="Group_725" data-name="Group 725" transform="translate(1534.99 5188.025)">
      <path id="Path_350-17" data-name="Path 350" d="M238.8,124.359l.037,9.79-12.623,1.192-.468-12.675-19.84-2.574,1.684,32.926,35.783-1.508.907-26.44Zm-19.4,10.55-6.524-.431-.037-9.749,6.981-.027Z" transform="translate(-205.367 -109.32)" fill="#ff481d"/>
      <path id="Path_351-17" data-name="Path 351" d="M205.2,106.082l38.65,5.42.438-12.773-39.456.149Z" transform="translate(-204.833 -98.729)" fill="#ff481d"/>
    </g>
    <g id="Group_711" data-name="Group 711" transform="translate(630.967 5149.762)">
      <path id="Path_350-18" data-name="Path 350" d="M238.8,124.359l.037,9.79-12.623,1.192-.468-12.675-19.84-2.574,1.684,32.926,35.783-1.508.907-26.44Zm-19.4,10.55-6.524-.431-.037-9.749,6.981-.027Z" transform="translate(-205.367 -109.32)" fill="#e52663"/>
      <path id="Path_351-18" data-name="Path 351" d="M205.2,106.082l38.65,5.42.438-12.773-39.456.149Z" transform="translate(-204.833 -98.729)" fill="#e52663"/>
    </g>
    <g id="Group_712" data-name="Group 712" transform="translate(1344.326 5193.458)">
      <path id="Path_350-19" data-name="Path 350" d="M238.8,124.359l.037,9.79-12.623,1.192-.468-12.675-19.84-2.574,1.684,32.926,35.783-1.508.907-26.44Zm-19.4,10.55-6.524-.431-.037-9.749,6.981-.027Z" transform="translate(-205.367 -109.32)" fill="#e52663"/>
      <path id="Path_351-19" data-name="Path 351" d="M205.2,106.082l38.65,5.42.438-12.773-39.456.149Z" transform="translate(-204.833 -98.729)" fill="#e52663"/>
    </g>
    <g id="Group_713" data-name="Group 713" transform="translate(645.511 5378.555)">
      <path id="Path_350-20" data-name="Path 350" d="M238.8,124.359l.037,9.79-12.623,1.192-.468-12.675-19.84-2.574,1.684,32.926,35.783-1.508.907-26.44Zm-19.4,10.55-6.524-.431-.037-9.749,6.981-.027Z" transform="translate(-205.367 -109.32)" fill="#f1a8ba"/>
      <path id="Path_351-20" data-name="Path 351" d="M205.2,106.082l38.65,5.42.438-12.773-39.456.149Z" transform="translate(-204.833 -98.729)" fill="#f1a8ba"/>
    </g>
    <g id="Group_714" data-name="Group 714" transform="translate(1187.291 5171.61)">
      <path id="Path_350-21" data-name="Path 350" d="M238.8,124.359l.037,9.79-12.623,1.192-.468-12.675-19.84-2.574,1.684,32.926,35.783-1.508.907-26.44Zm-19.4,10.55-6.524-.431-.037-9.749,6.981-.027Z" transform="translate(-205.367 -109.32)" fill="#f1a8ba"/>
      <path id="Path_351-21" data-name="Path 351" d="M205.2,106.082l38.65,5.42.438-12.773-39.456.149Z" transform="translate(-204.833 -98.729)" fill="#f1a8ba"/>
    </g>
    <g id="Group_715" data-name="Group 715" transform="translate(387.988 5178.509)">
      <path id="Path_350-22" data-name="Path 350" d="M238.8,124.359l.037,9.79-12.623,1.192-.468-12.675-19.84-2.574,1.684,32.926,35.783-1.508.907-26.44Zm-19.4,10.55-6.524-.431-.037-9.749,6.981-.027Z" transform="translate(-205.367 -109.32)" fill="#ff481d"/>
      <path id="Path_351-22" data-name="Path 351" d="M205.2,106.082l38.65,5.42.438-12.773-39.456.149Z" transform="translate(-204.833 -98.729)" fill="#ff481d"/>
    </g>
    <g id="Group_716" data-name="Group 716" transform="translate(1201.207 5332.996)">
      <path id="Path_350-23" data-name="Path 350" d="M238.8,124.359l.037,9.79-12.623,1.192-.468-12.675-19.84-2.574,1.684,32.926,35.783-1.508.907-26.44Zm-19.4,10.55-6.524-.431-.037-9.749,6.981-.027Z" transform="translate(-205.367 -109.32)" fill="#e52663"/>
      <path id="Path_351-23" data-name="Path 351" d="M205.2,106.082l38.65,5.42.438-12.773-39.456.149Z" transform="translate(-204.833 -98.729)" fill="#e52663"/>
    </g>
    <g id="Group_717" data-name="Group 717" transform="translate(1376.953 5332.996)">
      <path id="Path_350-24" data-name="Path 350" d="M238.8,124.359l.037,9.79-12.623,1.192-.468-12.675-19.84-2.574,1.684,32.926,35.783-1.508.907-26.44Zm-19.4,10.55-6.524-.431-.037-9.749,6.981-.027Z" transform="translate(-205.367 -109.32)" fill="#f1a8ba"/>
      <path id="Path_351-24" data-name="Path 351" d="M205.2,106.082l38.65,5.42.438-12.773-39.456.149Z" transform="translate(-204.833 -98.729)" fill="#f1a8ba"/>
    </g>
  </g>
</svg>
