<svg
      xmlns="http://www.w3.org/2000/svg"
      width="1937.04"
      height="41.021"
      viewBox="0 0 1937.04 41.021"
    >
      <g
        id="Group_556"
        data-name="Group 556"
        transform="translate(22 -6661.642)"
      >
        <g
          id="Group_442"
          data-name="Group 442"
          transform="translate(1023.167 6562.913)"
        >
          <path
            id="Path_350"
            data-name="Path 350"
            d="M236.791,124.1l.035,9.19-11.85,1.119-.44-11.9-18.625-2.416L207.491,151l33.592-1.416.851-24.821ZM218.58,134l-6.124-.4-.035-9.152,6.554-.025Z"
            transform="translate(-0.567 -11.251)"
            fill="#372152"
          />
          <path
            id="Path_351"
            data-name="Path 351"
            d="M205.179,105.632l36.283,5.088.411-11.991-37.04.139Z"
            fill="#372152"
          />
        </g>
        <g
          id="Group_443"
          data-name="Group 443"
          transform="translate(1423.167 6562.913)"
        >
          <path
            id="Path_350-2"
            data-name="Path 350"
            d="M236.791,124.1l.035,9.19-11.85,1.119-.44-11.9-18.625-2.416L207.491,151l33.592-1.416.851-24.821ZM218.58,134l-6.124-.4-.035-9.152,6.554-.025Z"
            transform="translate(-0.567 -11.251)"
            fill="#372152"
          />
          <path
            id="Path_351-2"
            data-name="Path 351"
            d="M205.179,105.632l36.283,5.088.411-11.991-37.04.139Z"
            fill="#372152"
          />
        </g>
        <g
          id="Group_447"
          data-name="Group 447"
          transform="translate(1223.167 6562.913)"
        >
          <path
            id="Path_350-3"
            data-name="Path 350"
            d="M236.791,124.1l.035,9.19-11.85,1.119-.44-11.9-18.625-2.416L207.491,151l33.592-1.416.851-24.821ZM218.58,134l-6.124-.4-.035-9.152,6.554-.025Z"
            transform="translate(-0.567 -11.251)"
            fill="#372152"
          />
          <path
            id="Path_351-3"
            data-name="Path 351"
            d="M205.179,105.632l36.283,5.088.411-11.991-37.04.139Z"
            fill="#372152"
          />
        </g>
        <g
          id="Group_448"
          data-name="Group 448"
          transform="translate(1623.167 6562.913)"
        >
          <path
            id="Path_350-4"
            data-name="Path 350"
            d="M236.791,124.1l.035,9.19-11.85,1.119-.44-11.9-18.625-2.416L207.491,151l33.592-1.416.851-24.821ZM218.58,134l-6.124-.4-.035-9.152,6.554-.025Z"
            transform="translate(-0.567 -11.251)"
            fill="#372152"
          />
          <path
            id="Path_351-4"
            data-name="Path 351"
            d="M205.179,105.632l36.283,5.088.411-11.991-37.04.139Z"
            fill="#372152"
          />
        </g>
        <g
          id="Group_452"
          data-name="Group 452"
          transform="translate(1123.167 6562.913)"
        >
          <path
            id="Path_350-5"
            data-name="Path 350"
            d="M236.791,124.1l.035,9.19-11.85,1.119-.44-11.9-18.625-2.416L207.491,151l33.592-1.416.851-24.821ZM218.58,134l-6.124-.4-.035-9.152,6.554-.025Z"
            transform="translate(-0.567 -11.251)"
            fill="#372152"
          />
          <path
            id="Path_351-5"
            data-name="Path 351"
            d="M205.179,105.632l36.283,5.088.411-11.991-37.04.139Z"
            fill="#372152"
          />
        </g>
        <g
          id="Group_453"
          data-name="Group 453"
          transform="translate(1523.167 6562.913)"
        >
          <path
            id="Path_350-6"
            data-name="Path 350"
            d="M236.791,124.1l.035,9.19-11.85,1.119-.44-11.9-18.625-2.416L207.491,151l33.592-1.416.851-24.821ZM218.58,134l-6.124-.4-.035-9.152,6.554-.025Z"
            transform="translate(-0.567 -11.251)"
            fill="#372152"
          />
          <path
            id="Path_351-6"
            data-name="Path 351"
            d="M205.179,105.632l36.283,5.088.411-11.991-37.04.139Z"
            fill="#372152"
          />
        </g>
        <g
          id="Group_456"
          data-name="Group 456"
          transform="translate(923.167 6562.913)"
        >
          <path
            id="Path_350-7"
            data-name="Path 350"
            d="M236.791,124.1l.035,9.19-11.85,1.119-.44-11.9-18.625-2.416L207.491,151l33.592-1.416.851-24.821ZM218.58,134l-6.124-.4-.035-9.152,6.554-.025Z"
            transform="translate(-0.567 -11.251)"
            fill="#372152"
          />
          <path
            id="Path_351-7"
            data-name="Path 351"
            d="M205.179,105.632l36.283,5.088.411-11.991-37.04.139Z"
            fill="#372152"
          />
        </g>
        <g
          id="Group_457"
          data-name="Group 457"
          transform="translate(1323.167 6562.913)"
        >
          <path
            id="Path_350-8"
            data-name="Path 350"
            d="M236.791,124.1l.035,9.19-11.85,1.119-.44-11.9-18.625-2.416L207.491,151l33.592-1.416.851-24.821ZM218.58,134l-6.124-.4-.035-9.152,6.554-.025Z"
            transform="translate(-0.567 -11.251)"
            fill="#372152"
          />
          <path
            id="Path_351-8"
            data-name="Path 351"
            d="M205.179,105.632l36.283,5.088.411-11.991-37.04.139Z"
            fill="#372152"
          />
        </g>
        <g
          id="Group_462"
          data-name="Group 462"
          transform="translate(1073.167 6562.913)"
        >
          <path
            id="Path_350-9"
            data-name="Path 350"
            d="M236.791,124.1l.035,9.19-11.85,1.119-.44-11.9-18.625-2.416L207.491,151l33.592-1.416.851-24.821ZM218.58,134l-6.124-.4-.035-9.152,6.554-.025Z"
            transform="translate(-0.567 -11.251)"
            fill="#372152"
          />
          <path
            id="Path_351-9"
            data-name="Path 351"
            d="M205.179,105.632l36.283,5.088.411-11.991-37.04.139Z"
            fill="#372152"
          />
        </g>
        <g
          id="Group_463"
          data-name="Group 463"
          transform="translate(1473.167 6562.913)"
        >
          <path
            id="Path_350-10"
            data-name="Path 350"
            d="M236.791,124.1l.035,9.19-11.85,1.119-.44-11.9-18.625-2.416L207.491,151l33.592-1.416.851-24.821ZM218.58,134l-6.124-.4-.035-9.152,6.554-.025Z"
            transform="translate(-0.567 -11.251)"
            fill="#372152"
          />
          <path
            id="Path_351-10"
            data-name="Path 351"
            d="M205.179,105.632l36.283,5.088.411-11.991-37.04.139Z"
            fill="#372152"
          />
        </g>
        <g
          id="Group_466"
          data-name="Group 466"
          transform="translate(873.167 6562.913)"
        >
          <path
            id="Path_350-11"
            data-name="Path 350"
            d="M236.791,124.1l.035,9.19-11.85,1.119-.44-11.9-18.625-2.416L207.491,151l33.592-1.416.851-24.821ZM218.58,134l-6.124-.4-.035-9.152,6.554-.025Z"
            transform="translate(-0.567 -11.251)"
            fill="#372152"
          />
          <path
            id="Path_351-11"
            data-name="Path 351"
            d="M205.179,105.632l36.283,5.088.411-11.991-37.04.139Z"
            fill="#372152"
          />
        </g>
        <g
          id="Group_467"
          data-name="Group 467"
          transform="translate(1273.167 6562.913)"
        >
          <path
            id="Path_350-12"
            data-name="Path 350"
            d="M236.791,124.1l.035,9.19-11.85,1.119-.44-11.9-18.625-2.416L207.491,151l33.592-1.416.851-24.821ZM218.58,134l-6.124-.4-.035-9.152,6.554-.025Z"
            transform="translate(-0.567 -11.251)"
            fill="#372152"
          />
          <path
            id="Path_351-12"
            data-name="Path 351"
            d="M205.179,105.632l36.283,5.088.411-11.991-37.04.139Z"
            fill="#372152"
          />
        </g>
        <g
          id="Group_468"
          data-name="Group 468"
          transform="translate(1673.167 6562.913)"
        >
          <path
            id="Path_350-13"
            data-name="Path 350"
            d="M236.791,124.1l.035,9.19-11.85,1.119-.44-11.9-18.625-2.416L207.491,151l33.592-1.416.851-24.821ZM218.58,134l-6.124-.4-.035-9.152,6.554-.025Z"
            transform="translate(-0.567 -11.251)"
            fill="#372152"
          />
          <path
            id="Path_351-13"
            data-name="Path 351"
            d="M205.179,105.632l36.283,5.088.411-11.991-37.04.139Z"
            fill="#372152"
          />
        </g>
        <g
          id="Group_472"
          data-name="Group 472"
          transform="translate(1173.167 6562.913)"
        >
          <path
            id="Path_350-14"
            data-name="Path 350"
            d="M236.791,124.1l.035,9.19-11.85,1.119-.44-11.9-18.625-2.416L207.491,151l33.592-1.416.851-24.821ZM218.58,134l-6.124-.4-.035-9.152,6.554-.025Z"
            transform="translate(-0.567 -11.251)"
            fill="#372152"
          />
          <path
            id="Path_351-14"
            data-name="Path 351"
            d="M205.179,105.632l36.283,5.088.411-11.991-37.04.139Z"
            fill="#372152"
          />
        </g>
        <g
          id="Group_473"
          data-name="Group 473"
          transform="translate(1573.167 6562.913)"
        >
          <path
            id="Path_350-15"
            data-name="Path 350"
            d="M236.791,124.1l.035,9.19-11.85,1.119-.44-11.9-18.625-2.416L207.491,151l33.592-1.416.851-24.821ZM218.58,134l-6.124-.4-.035-9.152,6.554-.025Z"
            transform="translate(-0.567 -11.251)"
            fill="#372152"
          />
          <path
            id="Path_351-15"
            data-name="Path 351"
            d="M205.179,105.632l36.283,5.088.411-11.991-37.04.139Z"
            fill="#372152"
          />
        </g>
        <g
          id="Group_476"
          data-name="Group 476"
          transform="translate(973.167 6562.913)"
        >
          <path
            id="Path_350-16"
            data-name="Path 350"
            d="M236.791,124.1l.035,9.19-11.85,1.119-.44-11.9-18.625-2.416L207.491,151l33.592-1.416.851-24.821ZM218.58,134l-6.124-.4-.035-9.152,6.554-.025Z"
            transform="translate(-0.567 -11.251)"
            fill="#372152"
          />
          <path
            id="Path_351-16"
            data-name="Path 351"
            d="M205.179,105.632l36.283,5.088.411-11.991-37.04.139Z"
            fill="#372152"
          />
        </g>
        <g
          id="Group_477"
          data-name="Group 477"
          transform="translate(1373.167 6562.913)"
        >
          <path
            id="Path_350-17"
            data-name="Path 350"
            d="M236.791,124.1l.035,9.19-11.85,1.119-.44-11.9-18.625-2.416L207.491,151l33.592-1.416.851-24.821ZM218.58,134l-6.124-.4-.035-9.152,6.554-.025Z"
            transform="translate(-0.567 -11.251)"
            fill="#372152"
          />
          <path
            id="Path_351-17"
            data-name="Path 351"
            d="M205.179,105.632l36.283,5.088.411-11.991-37.04.139Z"
            fill="#372152"
          />
        </g>
        <g
          id="Group_439"
          data-name="Group 439"
          transform="translate(-176.832 6562.913)"
        >
          <path
            id="Path_350-18"
            data-name="Path 350"
            d="M236.791,124.1l.035,9.19-11.85,1.119-.44-11.9-18.625-2.416L207.491,151l33.592-1.416.851-24.821ZM218.58,134l-6.124-.4-.035-9.152,6.554-.025Z"
            transform="translate(-0.567 -11.251)"
            fill="#e40303"
          />
          <path
            id="Path_351-18"
            data-name="Path 351"
            d="M205.179,105.632l36.283,5.088.411-11.991-37.04.139Z"
            fill="#e40303"
          />
        </g>
        <g
          id="Group_440"
          data-name="Group 440"
          transform="translate(223.168 6562.913)"
        >
          <path
            id="Path_350-19"
            data-name="Path 350"
            d="M236.791,124.1l.035,9.19-11.85,1.119-.44-11.9-18.625-2.416L207.491,151l33.592-1.416.851-24.821ZM218.58,134l-6.124-.4-.035-9.152,6.554-.025Z"
            transform="translate(-0.567 -11.251)"
            fill="#372152"
          />
          <path
            id="Path_351-19"
            data-name="Path 351"
            d="M205.179,105.632l36.283,5.088.411-11.991-37.04.139Z"
            fill="#372152"
          />
        </g>
        <g
          id="Group_441"
          data-name="Group 441"
          transform="translate(623.167 6562.913)"
        >
          <path
            id="Path_350-20"
            data-name="Path 350"
            d="M236.791,124.1l.035,9.19-11.85,1.119-.44-11.9-18.625-2.416L207.491,151l33.592-1.416.851-24.821ZM218.58,134l-6.124-.4-.035-9.152,6.554-.025Z"
            transform="translate(-0.567 -11.251)"
            fill="#372152"
          />
          <path
            id="Path_351-20"
            data-name="Path 351"
            d="M205.179,105.632l36.283,5.088.411-11.991-37.04.139Z"
            fill="#372152"
          />
        </g>
        <g
          id="Group_444"
          data-name="Group 444"
          transform="translate(23.168 6562.913)"
        >
          <path
            id="Path_350-21"
            data-name="Path 350"
            d="M236.791,124.1l.035,9.19-11.85,1.119-.44-11.9-18.625-2.416L207.491,151l33.592-1.416.851-24.821ZM218.58,134l-6.124-.4-.035-9.152,6.554-.025Z"
            transform="translate(-0.567 -11.251)"
            fill="#004dff"
          />
          <path
            id="Path_351-21"
            data-name="Path 351"
            d="M205.179,105.632l36.283,5.088.411-11.991-37.04.139Z"
            fill="#004dff"
          />
        </g>
        <g
          id="Group_445"
          data-name="Group 445"
          transform="translate(423.168 6562.913)"
        >
          <path
            id="Path_350-22"
            data-name="Path 350"
            d="M236.791,124.1l.035,9.19-11.85,1.119-.44-11.9-18.625-2.416L207.491,151l33.592-1.416.851-24.821ZM218.58,134l-6.124-.4-.035-9.152,6.554-.025Z"
            transform="translate(-0.567 -11.251)"
            fill="#372152"
          />
          <path
            id="Path_351-22"
            data-name="Path 351"
            d="M205.179,105.632l36.283,5.088.411-11.991-37.04.139Z"
            fill="#372152"
          />
        </g>
        <g
          id="Group_446"
          data-name="Group 446"
          transform="translate(823.167 6562.913)"
        >
          <path
            id="Path_350-23"
            data-name="Path 350"
            d="M236.791,124.1l.035,9.19-11.85,1.119-.44-11.9-18.625-2.416L207.491,151l33.592-1.416.851-24.821ZM218.58,134l-6.124-.4-.035-9.152,6.554-.025Z"
            transform="translate(-0.567 -11.251)"
            fill="#372152"
          />
          <path
            id="Path_351-23"
            data-name="Path 351"
            d="M205.179,105.632l36.283,5.088.411-11.991-37.04.139Z"
            fill="#372152"
          />
        </g>
        <g
          id="Group_449"
          data-name="Group 449"
          transform="translate(-76.832 6562.913)"
        >
          <path
            id="Path_350-24"
            data-name="Path 350"
            d="M236.791,124.1l.035,9.19-11.85,1.119-.44-11.9-18.625-2.416L207.491,151l33.592-1.416.851-24.821ZM218.58,134l-6.124-.4-.035-9.152,6.554-.025Z"
            transform="translate(-0.567 -11.251)"
            fill="#ffed00"
          />
          <path
            id="Path_351-24"
            data-name="Path 351"
            d="M205.179,105.632l36.283,5.088.411-11.991-37.04.139Z"
            fill="#ffed00"
          />
        </g>
        <g
          id="Group_450"
          data-name="Group 450"
          transform="translate(323.168 6562.913)"
        >
          <path
            id="Path_350-25"
            data-name="Path 350"
            d="M236.791,124.1l.035,9.19-11.85,1.119-.44-11.9-18.625-2.416L207.491,151l33.592-1.416.851-24.821ZM218.58,134l-6.124-.4-.035-9.152,6.554-.025Z"
            transform="translate(-0.567 -11.251)"
            fill="#372152"
          />
          <path
            id="Path_351-25"
            data-name="Path 351"
            d="M205.179,105.632l36.283,5.088.411-11.991-37.04.139Z"
            fill="#372152"
          />
        </g>
        <g
          id="Group_451"
          data-name="Group 451"
          transform="translate(723.167 6562.913)"
        >
          <path
            id="Path_350-26"
            data-name="Path 350"
            d="M236.791,124.1l.035,9.19-11.85,1.119-.44-11.9-18.625-2.416L207.491,151l33.592-1.416.851-24.821ZM218.58,134l-6.124-.4-.035-9.152,6.554-.025Z"
            transform="translate(-0.567 -11.251)"
            fill="#372152"
          />
          <path
            id="Path_351-26"
            data-name="Path 351"
            d="M205.179,105.632l36.283,5.088.411-11.991-37.04.139Z"
            fill="#372152"
          />
        </g>
        <g
          id="Group_454"
          data-name="Group 454"
          transform="translate(123.168 6562.913)"
        >
          <path
            id="Path_350-27"
            data-name="Path 350"
            d="M236.791,124.1l.035,9.19-11.85,1.119-.44-11.9-18.625-2.416L207.491,151l33.592-1.416.851-24.821ZM218.58,134l-6.124-.4-.035-9.152,6.554-.025Z"
            transform="translate(-0.567 -11.251)"
            fill="#372152"
          />
          <path
            id="Path_351-27"
            data-name="Path 351"
            d="M205.179,105.632l36.283,5.088.411-11.991-37.04.139Z"
            fill="#372152"
          />
        </g>
        <g
          id="Group_874"
          data-name="Group 874"
          transform="translate(-226.833 6562.913)"
        >
          <path
            id="Path_350-28"
            data-name="Path 350"
            d="M236.791,124.1l.035,9.19-11.85,1.119-.44-11.9-18.625-2.416L207.491,151l33.592-1.416.851-24.821ZM218.58,134l-6.124-.4-.035-9.152,6.554-.025Z"
            transform="translate(-0.567 -11.251)"
            fill="#372152"
          />
          <path
            id="Path_351-28"
            data-name="Path 351"
            d="M205.179,105.632l36.283,5.088.411-11.991-37.04.139Z"
            fill="#372152"
          />
        </g>
        <g
          id="Group_455"
          data-name="Group 455"
          transform="translate(523.167 6562.913)"
        >
          <path
            id="Path_350-29"
            data-name="Path 350"
            d="M236.791,124.1l.035,9.19-11.85,1.119-.44-11.9-18.625-2.416L207.491,151l33.592-1.416.851-24.821ZM218.58,134l-6.124-.4-.035-9.152,6.554-.025Z"
            transform="translate(-0.567 -11.251)"
            fill="#372152"
          />
          <path
            id="Path_351-29"
            data-name="Path 351"
            d="M205.179,105.632l36.283,5.088.411-11.991-37.04.139Z"
            fill="#372152"
          />
        </g>
        <g
          id="Group_458"
          data-name="Group 458"
          transform="translate(-126.832 6562.913)"
        >
          <path
            id="Path_350-30"
            data-name="Path 350"
            d="M236.791,124.1l.035,9.19-11.85,1.119-.44-11.9-18.625-2.416L207.491,151l33.592-1.416.851-24.821ZM218.58,134l-6.124-.4-.035-9.152,6.554-.025Z"
            transform="translate(-0.567 -11.251)"
            fill="#372152"
          />
          <path
            id="Path_351-30"
            data-name="Path 351"
            d="M205.179,105.632l36.283,5.088.411-11.991-37.04.139Z"
            fill="#372152"
          />
        </g>
        <g
          id="Group_459"
          data-name="Group 459"
          transform="translate(-126.832 6562.913)"
        >
          <path
            id="Path_350-31"
            data-name="Path 350"
            d="M236.791,124.1l.035,9.19-11.85,1.119-.44-11.9-18.625-2.416L207.491,151l33.592-1.416.851-24.821ZM218.58,134l-6.124-.4-.035-9.152,6.554-.025Z"
            transform="translate(-0.567 -11.251)"
            fill="#ff8c00"
          />
          <path
            id="Path_351-31"
            data-name="Path 351"
            d="M205.179,105.632l36.283,5.088.411-11.991-37.04.139Z"
            fill="#ff8c00"
          />
        </g>
        <g
          id="Group_460"
          data-name="Group 460"
          transform="translate(273.168 6562.913)"
        >
          <path
            id="Path_350-32"
            data-name="Path 350"
            d="M236.791,124.1l.035,9.19-11.85,1.119-.44-11.9-18.625-2.416L207.491,151l33.592-1.416.851-24.821ZM218.58,134l-6.124-.4-.035-9.152,6.554-.025Z"
            transform="translate(-0.567 -11.251)"
            fill="#372152"
          />
          <path
            id="Path_351-32"
            data-name="Path 351"
            d="M205.179,105.632l36.283,5.088.411-11.991-37.04.139Z"
            fill="#372152"
          />
        </g>
        <g
          id="Group_461"
          data-name="Group 461"
          transform="translate(673.167 6562.913)"
        >
          <path
            id="Path_350-33"
            data-name="Path 350"
            d="M236.791,124.1l.035,9.19-11.85,1.119-.44-11.9-18.625-2.416L207.491,151l33.592-1.416.851-24.821ZM218.58,134l-6.124-.4-.035-9.152,6.554-.025Z"
            transform="translate(-0.567 -11.251)"
            fill="#372152"
          />
          <path
            id="Path_351-33"
            data-name="Path 351"
            d="M205.179,105.632l36.283,5.088.411-11.991-37.04.139Z"
            fill="#372152"
          />
        </g>
        <g
          id="Group_464"
          data-name="Group 464"
          transform="translate(73.168 6562.913)"
        >
          <path
            id="Path_350-34"
            data-name="Path 350"
            d="M236.791,124.1l.035,9.19-11.85,1.119-.44-11.9-18.625-2.416L207.491,151l33.592-1.416.851-24.821ZM218.58,134l-6.124-.4-.035-9.152,6.554-.025Z"
            transform="translate(-0.567 -11.251)"
            fill="#750e87"
          />
          <path
            id="Path_351-34"
            data-name="Path 351"
            d="M205.179,105.632l36.283,5.088.411-11.991-37.04.139Z"
            fill="#750e87"
          />
        </g>
        <g
          id="Group_465"
          data-name="Group 465"
          transform="translate(473.168 6562.913)"
        >
          <path
            id="Path_350-35"
            data-name="Path 350"
            d="M236.791,124.1l.035,9.19-11.85,1.119-.44-11.9-18.625-2.416L207.491,151l33.592-1.416.851-24.821ZM218.58,134l-6.124-.4-.035-9.152,6.554-.025Z"
            transform="translate(-0.567 -11.251)"
            fill="#372152"
          />
          <path
            id="Path_351-35"
            data-name="Path 351"
            d="M205.179,105.632l36.283,5.088.411-11.991-37.04.139Z"
            fill="#372152"
          />
        </g>
        <g
          id="Group_469"
          data-name="Group 469"
          transform="translate(-26.832 6562.913)"
        >
          <path
            id="Path_350-36"
            data-name="Path 350"
            d="M236.791,124.1l.035,9.19-11.85,1.119-.44-11.9-18.625-2.416L207.491,151l33.592-1.416.851-24.821ZM218.58,134l-6.124-.4-.035-9.152,6.554-.025Z"
            transform="translate(-0.567 -11.251)"
            fill="#008026"
          />
          <path
            id="Path_351-36"
            data-name="Path 351"
            d="M205.179,105.632l36.283,5.088.411-11.991-37.04.139Z"
            fill="#008026"
          />
        </g>
        <g
          id="Group_470"
          data-name="Group 470"
          transform="translate(373.168 6562.913)"
        >
          <path
            id="Path_350-37"
            data-name="Path 350"
            d="M236.791,124.1l.035,9.19-11.85,1.119-.44-11.9-18.625-2.416L207.491,151l33.592-1.416.851-24.821ZM218.58,134l-6.124-.4-.035-9.152,6.554-.025Z"
            transform="translate(-0.567 -11.251)"
            fill="#372152"
          />
          <path
            id="Path_351-37"
            data-name="Path 351"
            d="M205.179,105.632l36.283,5.088.411-11.991-37.04.139Z"
            fill="#372152"
          />
        </g>
        <g
          id="Group_471"
          data-name="Group 471"
          transform="translate(773.167 6562.913)"
        >
          <path
            id="Path_350-38"
            data-name="Path 350"
            d="M236.791,124.1l.035,9.19-11.85,1.119-.44-11.9-18.625-2.416L207.491,151l33.592-1.416.851-24.821ZM218.58,134l-6.124-.4-.035-9.152,6.554-.025Z"
            transform="translate(-0.567 -11.251)"
            fill="#372152"
          />
          <path
            id="Path_351-38"
            data-name="Path 351"
            d="M205.179,105.632l36.283,5.088.411-11.991-37.04.139Z"
            fill="#372152"
          />
        </g>
        <g
          id="Group_474"
          data-name="Group 474"
          transform="translate(173.168 6562.913)"
        >
          <path
            id="Path_350-39"
            data-name="Path 350"
            d="M236.791,124.1l.035,9.19-11.85,1.119-.44-11.9-18.625-2.416L207.491,151l33.592-1.416.851-24.821ZM218.58,134l-6.124-.4-.035-9.152,6.554-.025Z"
            transform="translate(-0.567 -11.251)"
            fill="#372152"
          />
          <path
            id="Path_351-39"
            data-name="Path 351"
            d="M205.179,105.632l36.283,5.088.411-11.991-37.04.139Z"
            fill="#372152"
          />
        </g>
        <g
          id="Group_475"
          data-name="Group 475"
          transform="translate(573.167 6562.913)"
        >
          <path
            id="Path_350-40"
            data-name="Path 350"
            d="M236.791,124.1l.035,9.19-11.85,1.119-.44-11.9-18.625-2.416L207.491,151l33.592-1.416.851-24.821ZM218.58,134l-6.124-.4-.035-9.152,6.554-.025Z"
            transform="translate(-0.567 -11.251)"
            fill="#372152"
          />
          <path
            id="Path_351-40"
            data-name="Path 351"
            d="M205.179,105.632l36.283,5.088.411-11.991-37.04.139Z"
            fill="#372152"
          />
        </g>
      </g>
    </svg>