<?xml version="1.0" encoding="utf-8"?>
<!-- Generator: Adobe Illustrator 25.4.1, SVG Export Plug-In . SVG Version: 6.00 Build 0)  -->
<svg version="1.1" id="Ebene_1" xmlns="http://www.w3.org/2000/svg" xmlns:xlink="http://www.w3.org/1999/xlink" x="0px" y="0px"
	 viewBox="0 0 430.29 430.3" style="enable-background:new 0 0 430.29 430.3;" xml:space="preserve">
<style type="text/css">
	.st0{fill:#372152;}
	.st1{fill:#FFFFFF;}
</style>
<g>
	<path class="st0" d="M215.26,0.01c118.82,0.06,215.1,96.44,215.03,215.26c-0.06,118.82-96.44,215.1-215.26,215.03
		C96.35,430.24,0.13,334.08,0,215.4C-0.19,96.63,95.94,0.19,214.72,0C214.9,0.01,215.08,0.01,215.26,0.01z"/>
	<path class="st1" d="M98.73,205.72c1.01-25.52,5.64-50.76,13.76-74.97c-17.49-6.96-34.23-15.66-49.98-25.96
		c-21.36,29.5-33.69,64.56-35.49,100.94h71.71V205.72z"/>
	<path class="st1" d="M331.47,205.72h71.69c-1.8-36.36-14.13-71.42-35.48-100.92c-15.75,10.33-32.5,19.04-49.99,26.02
		c8.13,24.18,12.78,49.39,13.81,74.87L331.47,205.72z"/>
	<path class="st1" d="M98.73,224.63H27.11c1.8,36.37,14.13,71.43,35.49,100.92c15.57-10.19,32.1-18.81,49.37-25.74
		C104,275.5,99.54,250.19,98.73,224.63z"/>
	<path class="st1" d="M331.62,224.63c-0.39,12.77-1.7,25.49-3.91,38.07c-2.22,12.59-5.33,25-9.31,37.14
		c17.26,6.92,33.8,15.53,49.36,25.7c11.99-16.49,21.2-34.84,27.25-54.3c4.72-15.1,7.47-30.75,8.2-46.55L331.62,224.63z"/>
	<path class="st1" d="M205.72,280.18v-55.53h-88.14c0.62,23.41,4.74,46.6,12.23,68.79c24.55-7.92,50.08-12.39,75.86-13.29
		L205.72,280.18z"/>
	<path class="st1" d="M224.61,280.18c25.86,0.87,51.47,5.34,76.09,13.27c7.36-22.21,11.41-45.38,12.02-68.77h-88.1L224.61,280.18z"
		/>
	<path class="st1" d="M205.77,205.76V150.2c-25.69-0.89-51.14-5.31-75.63-13.13c-7.44,22.19-11.71,45.31-12.69,68.69H205.77z"/>
	<path class="st1" d="M224.61,205.68h88.24c-0.97-23.34-5.29-46.42-12.82-68.54c-24.42,7.8-49.8,12.2-75.42,13.07V205.68z"/>
	<path class="st1" d="M224.61,403.15c2.09,0.29,4.21-0.24,5.92-1.47c26.62-24,47.77-53.44,62.05-86.31c0.61-1.41,1.13-2.85,1.8-4.39
		c-22.59-7.23-46.07-11.33-69.77-12.17L224.61,403.15L224.61,403.15z"/>
	<path class="st1" d="M136.01,310.99c0.32,0.84,0.53,1.45,0.79,2.05c14.16,33.59,35.48,63.67,62.48,88.15
		c1.73,1.6,4.12,2.29,6.44,1.86V298.8c-23.7,0.86-47.17,4.96-69.76,12.17L136.01,310.99z"/>
	<path class="st1" d="M293.57,119.64c-0.18-0.54-0.26-0.84-0.38-1.13C278.39,83.7,255.81,52.74,227.2,28
		c-0.8-0.46-1.67-0.79-2.57-0.98v104.6c23.4-0.89,46.58-4.93,68.9-12.01L293.57,119.64z"/>
	<path class="st1" d="M136.6,119.57c22.39,7.09,45.64,11.13,69.11,12V26.8c-1,0.36-1.96,0.84-2.85,1.43
		c-24.72,21.45-44.94,47.6-59.49,76.93c-2.39,4.6-4.5,9.39-6.82,14.38L136.6,119.57z"/>
	<path class="st1" d="M311.16,113.18c15.72-6.04,30.73-13.8,44.76-23.14c-25.65-28.87-59.6-49.11-97.19-57.95
		c22.14,23.69,39.88,51.13,52.39,81.05L311.16,113.18z"/>
	<path class="st1" d="M74.49,90.3c14.08,9.12,29.02,16.84,44.61,23.05c12.51-30.06,30.39-57.59,52.75-81.24
		c-28.86,3.64-81.51,35.14-97.41,58.16L74.49,90.3z"/>
	<path class="st1" d="M261.27,397.61c18.22-4.44,35.64-11.69,51.63-21.5c16.04-9.74,30.54-21.83,42.99-35.87
		c-13.83-9.12-28.57-16.78-43.99-22.83c-6,14.67-13.28,28.77-21.76,42.17c-8.57,13.45-18.24,26.16-28.92,38L261.27,397.61z"/>
	<path class="st1" d="M169.01,397.61c-10.6-11.82-20.22-24.48-28.76-37.87c-8.52-13.46-15.84-27.64-21.86-42.39
		c-15.41,6.18-30.19,13.83-44.12,22.86c25.07,28.22,58.08,48.21,94.7,57.35L169.01,397.61z"/>
</g>
</svg>
