<svg xmlns="http://www.w3.org/2000/svg" width="228.342" height="74.454" viewBox="0 0 228.342 74.454">
  <g id="Group_1" data-name="Group 1" transform="translate(0 0)">
    <path id="Path_1" data-name="Path 1" d="M4837.927-2444.341l-25.99,2.927-17.988-5.257-3.708,58.442h8.351l2.341-29.254,11,2.2,25.99-3.385Z" transform="translate(-4757.688 2462.683)" fill="#372152"/>
    <path id="Path_2" data-name="Path 2" d="M4780.112-2423.725l-9.589.652-2.6-23.983h-8.42l2.6,32.39,26.429-1.11,2.117-31.28H4782.6Z" transform="translate(-4759.508 2462.66)" fill="#372152"/>
    <path id="Path_3" data-name="Path 3" d="M4867.772-2426.049l-18.5-1.221v-10.074l16.817-.458-.306-8.869-25.367,2.013v25.8l27.813,1.666Z" transform="translate(-4754.719 2462.683)" fill="#372152"/>
    <path id="Path_4" data-name="Path 4" d="M4880.334-2417.2l-.459-20.776,8.715-.153.917-7.311-18.8-1.236,1.07,29.475Z" transform="translate(-4752.926 2462.683)" fill="#372152"/>
    <path id="Path_5" data-name="Path 5" d="M4910.726-2446.671l.052,4.229-18.3-2.856-2.293,28.1,20.714-2.286.231,3.66,8.562-.458-.764-30.391Zm-11.058,20.621.458-9.4,10.533.467.169,7.562Z" transform="translate(-4751.772 2462.683)" fill="#372152"/>
    <path id="Path_6" data-name="Path 6" d="M4936.34-2444.976l.345-16.813h-7.338l-1.246,16.268-5.94-.393v7.174l5.379.506-1.557,22.848,9.785.355.417-22.389,9.061.852.918-7.819Z" transform="translate(-4749.88 2461.789)" fill="#372152"/>
    <path id="Path_7" data-name="Path 7" d="M4955.661-2427.2l13.037-.458v-7.633l-12.349.458.388-3.327,18.842-.91-.306-8.869-25.442,2.458-3.669,29,30.641,2.137v-8.854l-21.523-1.186Z" transform="translate(-4748.459 2462.609)" fill="#372152"/>
  </g>
</svg>
