<svg xmlns="http://www.w3.org/2000/svg" width="62.306" height="125.431" viewBox="0 0 62.306 125.431">
  <g id="Group_227" data-name="Group 227" transform="matrix(0.974, 0.225, -0.225, 0.974, 27.471, -1.606)">
    <path id="Path_326" data-name="Path 326" d="M24.611,52.649l4-26.031L17.363,0,1.374,23.958,0,49.288" transform="translate(7.141 0)" fill="#5db19c"/>
    <path id="Path_327" data-name="Path 327" d="M8.5,8.239,0,7.441,4.994,0Z" transform="translate(19.509 0)" fill="#1644ef"/>
    <path id="Path_328" data-name="Path 328" d="M27.235,4.413l-1.2-2.343L24.283,4.136,22.79,1.765,21.165,3.842,19.649,1.47l-1.8,2.061L16.522,1.176,14.8,3.2,13.536.9,11.859,2.911,10.436.6,8.627,2.562,7.124.294,5.454,2.368,3.989,0,2.35,2.077,1.219.187,0,1.752l2.467,3.9" transform="translate(8.515 22.206)" fill="#1644ef"/>
    <path id="Path_329" data-name="Path 329" d="M0,95.611l27.246,2.558L35.761,2.558,8.515,0Z" transform="translate(0 23.954)" fill="#1644ef"/>
    <path id="Path_330" data-name="Path 330" d="M0,66.405l5.653.526L11.354.526,5.7,0Z" transform="translate(12.057 43.294)" fill="#103ec1"/>
  </g>
</svg>
