<svg xmlns="http://www.w3.org/2000/svg" width="281.32" height="137.593" viewBox="0 0 281.32 137.593">
  <g id="Group_513" data-name="Group 513" transform="translate(6541.633 -1596.476)">
    <path id="Path_416" data-name="Path 416" d="M-5672.362,1896.225l-1.224,20.211-11.857,1.548-.193-21.368-9.436-.473,1.667,29.239,19.364-1.218-.208,3.53-.7,11.866-16.227,2.024-.8,7.455,26.034-1.757.709-19.881h.01l.144-4.327.1-2.865h-.006l.823-23.548Z" transform="translate(-607.291 -214.97)" fill="#372152"/>
    <path id="Path_417" data-name="Path 417" d="M-6375.376,1895.45l-20.018-.785,1.351,30.465,8.857-.225-.49-21.481,9.542-.387Z" transform="translate(-104.907 -213.91)" fill="#372152"/>
    <path id="Path_418" data-name="Path 418" d="M-5770.529,1853.695l-9.975.168-.958-17.021-7.417.57.005,16.54-6.035.064.558,7.251,5.476.094.2,23.214,9.917-.4-1.318-22.662,9.225.157Z" transform="translate(-535.672 -172.429)" fill="#372152"/>
    <path id="Path_419" data-name="Path 419" d="M-6209.732,1924.581l20.455-1.8.048,2.556,8.028-.041-.907-30.739-7.692.039.066,3.542-20.257-2.945Zm18.986-19.513.372,10.6-11.4,1.077-.383-11.945Z" transform="translate(-237.907 -213.831)" fill="#372152"/>
    <path id="Path_420" data-name="Path 420" d="M-6293.336,1655.819l-21.24,2.23-.565-19.777-8.211-.088.9,48.55,7.869.085-.01-3.624,20.866,1.669Zm-8.868,20.666-11.25-.395-.192-9.732,12.107-1.179Z" transform="translate(-156.587 -29.92)" fill="#372152"/>
    <path id="Path_421" data-name="Path 421" d="M-6203.219,1699.23l-.131,31.381,26.715-1.474.277-28.674Zm19.212,23.415-11.548.91.111-15.731,11.438-.154Z" transform="translate(-242.671 -73.712)" fill="#372152"/>
    <path id="Path_422" data-name="Path 422" d="M-6478.48,1894.886l-26.026,2.179.115,26.476,28.553,1.586-.51-9.084-18.992-1.171-.045-10.34,17.258-.545Z" transform="translate(-26.633 -214.068)" fill="#372152"/>
    <path id="Path_423" data-name="Path 423" d="M-5596.867,1704.162l-19.924-.781,1.345,30.322,8.386-.334-.487-21.38,9.926-.276Z" transform="translate(-663.446 -76.69)" fill="#372152"/>
    <path id="Path_424" data-name="Path 424" d="M-5989.623,1928.4l-.869-30.383-8.589.475.4,29.964Z" transform="translate(-389.206 -216.314)" fill="#372152"/>
    <path id="Path_425" data-name="Path 425" d="M-6074.65,1855.85l-9.975.168-.958-17.021-7.417.57,0,16.54-6.035.064.558,7.251,5.476.094.2,23.215,9.918-.4-1.318-22.662,9.225.157Z" transform="translate(-317.507 -173.975)" fill="#372152"/>
    <path id="Path_426" data-name="Path 426" d="M-5929.353,1925.562l5.426-28.589-8.229-.506-3.97,21.491-8.693.738-.533-22.309-7.8.538.781,30.427Z" transform="translate(-422.156 -215.144)" fill="#372152"/>
    <path id="Path_427" data-name="Path 427" d="M-6067.091,1726.224l-9.979-9.779,9.384-9.2-5.053-7.079L-6083,1710.635l-10.174-9.97-5.646,5.474,10.117,10.317-9.594,9.791,5.474,5.647,9.818-9.628,8.836,9.011Z" transform="translate(-317.656 -74.382)" fill="#372152"/>
    <path id="Path_428" data-name="Path 428" d="M-5809.112,1703.452l-27.036,1.242.5,29.724,26.666.619Zm-19.114,24.432-.223-15.937,11.512.155.111,15.833Z" transform="translate(-506.088 -76.741)" fill="#372152"/>
    <path id="Path_429" data-name="Path 429" d="M-5928.832,1727.386l0-23.294-8.121-.143-.21,19.939-12,.808-.933-21.1-9.339-.14,2.663,28.829,19.429-.744v14.616l-17.593-.163.345,8.029,25.756.148.01-19.667h.01l-.008-4.28v-2.835Z" transform="translate(-417.645 -76.741)" fill="#372152"/>
    <path id="Path_430" data-name="Path 430" d="M-5830.341,1925.784l.108-30.486-8.6-.4-.564,29.961Z" transform="translate(-503.757 -214.073)" fill="#372152"/>
    <path id="Path_431" data-name="Path 431" d="M-6073.447,1625.935l-.234-7.058-11.04-1.474.869,18.334,19.924-.765.561-14.718-3.048-.407v5.451Zm-3.792-.255-3.631-.253V1620h3.886Z" transform="translate(-327.771 -15.012)" fill="#372152"/>
    <path id="Path_432" data-name="Path 432" d="M-5992.111,1859.98l-.384-9.5-8.4,1.393.83,9.111Z" transform="translate(-387.908 -182.215)" fill="#372152"/>
    <path id="Path_433" data-name="Path 433" d="M-5699.643,1704.026l-8.121-.5-.187,21.146-10.429.727-.522-21.951-7.694.531.765,30.626,26.483-2.453Z" transform="translate(-584.677 -76.741)" fill="#372152"/>
    <path id="Path_434" data-name="Path 434" d="M-5829.3,1858.013l-.085-9.505-8.436-.09.543,9.132Z" transform="translate(-504.89 -180.733)" fill="#372152"/>
    <path id="Path_435" data-name="Path 435" d="M-6063.746,1596.476h-21.966l.19,4.012,21.506,3.1Z" transform="translate(-327.06)" fill="#372152"/>
    <path id="Path_436" data-name="Path 436" d="M-6296.582,1899.194l-.326-8.407-24.111,2.435-3.36,27.51,29.058,1.9-.036-8.393-20.41-1.036.352-2.676,12.358-.488-.032-7.236-11.706.485.353-3.155Z" transform="translate(-155.85 -211.128)" fill="#372152"/>
    <path id="Path_437" data-name="Path 437" d="M-6414.229,1731.613l8.069-.494.293-27.948-26.312-2.437-.76,30.428,7.645.528.52-21.809,10.36.723Z" transform="translate(-77.973 -74.79)" fill="#372152"/>
    <path id="Path_438" data-name="Path 438" d="M-6514.546,1700.405l-7.66.093-.519,21.809-10.361-.33-.183-21.1-8.072.19-.293,28.341,26.313,2.044Z" transform="translate(0 -74.555)" fill="#372152"/>
  </g>
</svg>
